<?xml version="1.0" encoding="UTF-8" standalone="no"?>
<!DOCTYPE svg PUBLIC "-//W3C//DTD SVG 1.1//EN"
 "http://www.w3.org/Graphics/SVG/1.1/DTD/svg11.dtd">
<!-- Generated by graphviz version 2.44.1 (20200629.0846)
 -->
<!-- Title: dependencies Pages: 1 -->
<svg width="2309pt" height="284pt"
 viewBox="0.00 0.00 2309.00 284.00" xmlns="http://www.w3.org/2000/svg" xmlns:xlink="http://www.w3.org/1999/xlink">
<g id="graph0" class="graph" transform="scale(1 1) rotate(0) translate(4 280)">
<title>dependencies</title>
<polygon fill="white" stroke="transparent" points="-4,4 -4,-280 2305,-280 2305,4 -4,4"/>
<text text-anchor="start" x="1129.51" y="-42.4" font-family="sans-serif" font-weight="bold" font-size="14.00">Legend</text>
<polygon fill="#ffffb3" stroke="transparent" points="916.5,-10 916.5,-30 936.5,-30 936.5,-10 916.5,-10"/>
<text text-anchor="start" x="940.13" y="-15.4" font-family="sans-serif" font-size="14.00"> &#160;Declarations</text>
<polygon fill="#8dd3c7" stroke="transparent" points="1029.5,-10 1029.5,-30 1049.5,-30 1049.5,-10 1029.5,-10"/>
<text text-anchor="start" x="1053.23" y="-15.4" font-family="sans-serif" font-size="14.00"> &#160;Module</text>
<polygon fill="#80b1d3" stroke="transparent" points="1115.5,-10 1115.5,-30 1135.5,-30 1135.5,-10 1115.5,-10"/>
<text text-anchor="start" x="1139.28" y="-15.4" font-family="sans-serif" font-size="14.00"> &#160;Bootstrap</text>
<polygon fill="#fdb462" stroke="transparent" points="1212.5,-10 1212.5,-30 1232.5,-30 1232.5,-10 1212.5,-10"/>
<text text-anchor="start" x="1236.17" y="-15.4" font-family="sans-serif" font-size="14.00"> &#160;Providers</text>
<polygon fill="#fb8072" stroke="transparent" points="1308.5,-10 1308.5,-30 1328.5,-30 1328.5,-10 1308.5,-10"/>
<text text-anchor="start" x="1332.23" y="-15.4" font-family="sans-serif" font-size="14.00"> &#160;Exports</text>
<g id="clust1" class="cluster">
<title>cluster_AppModule</title>
<polygon fill="none" stroke="black" stroke-dasharray="1,5" points="8,-70 8,-268 2293,-268 2293,-70 8,-70"/>
</g>
<g id="clust2" class="cluster">
<title>cluster_AppModule_declarations</title>
<polygon fill="none" stroke="black" points="965,-78 965,-130 2285,-130 2285,-78 965,-78"/>
</g>
<g id="clust12" class="cluster">
<title>cluster_AppModule_imports</title>
<polygon fill="none" stroke="black" points="276,-78 276,-130 957,-130 957,-78 276,-78"/>
</g>
<g id="clust14" class="cluster">
<title>cluster_AppModule_bootstrap</title>
<polygon fill="none" stroke="black" points="1074,-208 1074,-260 1198,-260 1198,-208 1074,-208"/>
</g>
<g id="clust15" class="cluster">
<title>cluster_AppModule_providers</title>
<polygon fill="none" stroke="black" points="16,-78 16,-130 268,-130 268,-78 16,-78"/>
</g>
<!-- AppComponent -->
<g id="node1" class="node">
<title>AppComponent</title>
<polygon fill="#ffffb3" stroke="black" points="2276.94,-122 2171.06,-122 2171.06,-86 2276.94,-86 2276.94,-122"/>
<text text-anchor="middle" x="2224" y="-99.8" font-family="Times,serif" font-size="14.00">AppComponent</text>
</g>
<!-- AppModule -->
<g id="node10" class="node">
<title>AppModule</title>
<polygon fill="#8dd3c7" stroke="black" points="1177.66,-187 1174.66,-191 1153.66,-191 1150.66,-187 1094.34,-187 1094.34,-151 1177.66,-151 1177.66,-187"/>
<text text-anchor="middle" x="1136" y="-164.8" font-family="Times,serif" font-size="14.00">AppModule</text>
</g>
<!-- AppComponent&#45;&gt;AppModule -->
<g id="edge1" class="edge">
<title>AppComponent&#45;&gt;AppModule</title>
<path fill="none" stroke="black" d="M2224,-122.32C2224,-145.66 2224,-183 2224,-183 2224,-183 1187.98,-183 1187.98,-183"/>
<polygon fill="black" stroke="black" points="1187.98,-179.5 1177.98,-183 1187.98,-186.5 1187.98,-179.5"/>
</g>
<!-- HeaderComponent -->
<g id="node2" class="node">
<title>HeaderComponent</title>
<polygon fill="#ffffb3" stroke="black" points="2152.74,-122 2031.26,-122 2031.26,-86 2152.74,-86 2152.74,-122"/>
<text text-anchor="middle" x="2092" y="-99.8" font-family="Times,serif" font-size="14.00">HeaderComponent</text>
</g>
<!-- HeaderComponent&#45;&gt;AppModule -->
<g id="edge2" class="edge">
<title>HeaderComponent&#45;&gt;AppModule</title>
<path fill="none" stroke="black" d="M2092,-122.29C2092,-144.21 2092,-178 2092,-178 2092,-178 1187.69,-178 1187.69,-178"/>
<polygon fill="black" stroke="black" points="1187.69,-174.5 1177.69,-178 1187.69,-181.5 1187.69,-174.5"/>
</g>
<!-- routerComponents -->
<g id="node3" class="node">
<title>routerComponents</title>
<polygon fill="#ffffb3" stroke="black" points="2013.2,-122 1892.8,-122 1892.8,-86 2013.2,-86 2013.2,-122"/>
<text text-anchor="middle" x="1953" y="-99.8" font-family="Times,serif" font-size="14.00">routerComponents</text>
</g>
<!-- routerComponents&#45;&gt;AppModule -->
<g id="edge3" class="edge">
<title>routerComponents&#45;&gt;AppModule</title>
<path fill="none" stroke="black" d="M1953,-122.03C1953,-142.77 1953,-174 1953,-174 1953,-174 1187.92,-174 1187.92,-174"/>
<polygon fill="black" stroke="black" points="1187.92,-170.5 1177.92,-174 1187.92,-177.5 1187.92,-170.5"/>
</g>
<!-- IdeCompileComponent -->
<g id="node4" class="node">
<title>IdeCompileComponent</title>
<polygon fill="#ffffb3" stroke="black" points="1874.93,-122 1727.07,-122 1727.07,-86 1874.93,-86 1874.93,-122"/>
<text text-anchor="middle" x="1801" y="-99.8" font-family="Times,serif" font-size="14.00">IdeCompileComponent</text>
</g>
<!-- IdeCompileComponent&#45;&gt;AppModule -->
<g id="edge4" class="edge">
<title>IdeCompileComponent&#45;&gt;AppModule</title>
<path fill="none" stroke="black" d="M1801,-122.11C1801,-141.34 1801,-169 1801,-169 1801,-169 1187.85,-169 1187.85,-169"/>
<polygon fill="black" stroke="black" points="1187.85,-165.5 1177.85,-169 1187.85,-172.5 1187.85,-165.5"/>
</g>
<!-- InputComponent -->
<g id="node5" class="node">
<title>InputComponent</title>
<polygon fill="#ffffb3" stroke="black" points="1709.38,-122 1598.62,-122 1598.62,-86 1709.38,-86 1709.38,-122"/>
<text text-anchor="middle" x="1654" y="-99.8" font-family="Times,serif" font-size="14.00">InputComponent</text>
</g>
<!-- InputComponent&#45;&gt;AppModule -->
<g id="edge5" class="edge">
<title>InputComponent&#45;&gt;AppModule</title>
<path fill="none" stroke="black" d="M1654,-122.3C1654,-140.27 1654,-165 1654,-165 1654,-165 1187.95,-165 1187.95,-165"/>
<polygon fill="black" stroke="black" points="1187.95,-161.5 1177.95,-165 1187.95,-168.5 1187.95,-161.5"/>
</g>
<!-- SaveFileComponent -->
<g id="node6" class="node">
<title>SaveFileComponent</title>
<polygon fill="#ffffb3" stroke="black" points="1580.32,-122 1449.68,-122 1449.68,-86 1580.32,-86 1580.32,-122"/>
<text text-anchor="middle" x="1515" y="-99.8" font-family="Times,serif" font-size="14.00">SaveFileComponent</text>
</g>
<!-- SaveFileComponent&#45;&gt;AppModule -->
<g id="edge6" class="edge">
<title>SaveFileComponent&#45;&gt;AppModule</title>
<path fill="none" stroke="black" d="M1515,-122.03C1515,-138.4 1515,-160 1515,-160 1515,-160 1188.01,-160 1188.01,-160"/>
<polygon fill="black" stroke="black" points="1188.01,-156.5 1178.01,-160 1188.01,-163.5 1188.01,-156.5"/>
</g>
<!-- FileComponent -->
<g id="node7" class="node">
<title>FileComponent</title>
<polygon fill="#ffffb3" stroke="black" points="1431.61,-122 1328.39,-122 1328.39,-86 1431.61,-86 1431.61,-122"/>
<text text-anchor="middle" x="1380" y="-99.8" font-family="Times,serif" font-size="14.00">FileComponent</text>
</g>
<!-- FileComponent&#45;&gt;AppModule -->
<g id="edge7" class="edge">
<title>FileComponent&#45;&gt;AppModule</title>
<path fill="none" stroke="black" d="M1380,-122.19C1380,-137.18 1380,-156 1380,-156 1380,-156 1187.67,-156 1187.67,-156"/>
<polygon fill="black" stroke="black" points="1187.67,-152.5 1177.67,-156 1187.67,-159.5 1187.67,-152.5"/>
</g>
<!-- SubmitTryCodeComponent -->
<g id="node8" class="node">
<title>SubmitTryCodeComponent</title>
<polygon fill="#ffffb3" stroke="black" points="1310.55,-122 1139.45,-122 1139.45,-86 1310.55,-86 1310.55,-122"/>
<text text-anchor="middle" x="1225" y="-99.8" font-family="Times,serif" font-size="14.00">SubmitTryCodeComponent</text>
</g>
<!-- SubmitTryCodeComponent&#45;&gt;AppModule -->
<g id="edge8" class="edge">
<title>SubmitTryCodeComponent&#45;&gt;AppModule</title>
<path fill="none" stroke="black" d="M1158.53,-122.11C1158.53,-122.11 1158.53,-140.99 1158.53,-140.99"/>
<polygon fill="black" stroke="black" points="1155.03,-140.99 1158.53,-150.99 1162.03,-140.99 1155.03,-140.99"/>
</g>
<!-- FileDirCardComponent -->
<g id="node9" class="node">
<title>FileDirCardComponent</title>
<polygon fill="#ffffb3" stroke="black" points="1121.48,-122 972.52,-122 972.52,-86 1121.48,-86 1121.48,-122"/>
<text text-anchor="middle" x="1047" y="-99.8" font-family="Times,serif" font-size="14.00">FileDirCardComponent</text>
</g>
<!-- FileDirCardComponent&#45;&gt;AppModule -->
<g id="edge9" class="edge">
<title>FileDirCardComponent&#45;&gt;AppModule</title>
<path fill="none" stroke="black" d="M1107.83,-122.11C1107.83,-122.11 1107.83,-140.99 1107.83,-140.99"/>
<polygon fill="black" stroke="black" points="1104.33,-140.99 1107.83,-150.99 1111.33,-140.99 1104.33,-140.99"/>
</g>
<!-- AppComponent  -->
<g id="node16" class="node">
<title>AppComponent </title>
<polygon fill="#80b1d3" stroke="black" points="1190.44,-252 1081.56,-252 1081.56,-216 1190.44,-216 1190.44,-252"/>
<text text-anchor="middle" x="1136" y="-229.8" font-family="Times,serif" font-size="14.00">AppComponent </text>
</g>
<!-- AppModule&#45;&gt;AppComponent  -->
<g id="edge15" class="edge">
<title>AppModule&#45;&gt;AppComponent </title>
<path fill="none" stroke="black" stroke-dasharray="1,5" d="M1136,-187.11C1136,-187.11 1136,-205.99 1136,-205.99"/>
<polygon fill="black" stroke="black" points="1132.5,-205.99 1136,-215.99 1139.5,-205.99 1132.5,-205.99"/>
</g>
<!-- BrowserModule -->
<g id="node11" class="node">
<title>BrowserModule</title>
<polygon fill="#8dd3c7" stroke="black" points="949.47,-122 946.47,-126 925.47,-126 922.47,-122 842.53,-122 842.53,-86 949.47,-86 949.47,-122"/>
<text text-anchor="middle" x="896" y="-99.8" font-family="Times,serif" font-size="14.00">BrowserModule</text>
</g>
<!-- BrowserModule&#45;&gt;AppModule -->
<g id="edge10" class="edge">
<title>BrowserModule&#45;&gt;AppModule</title>
<path fill="none" stroke="black" d="M896,-122.19C896,-137.18 896,-156 896,-156 896,-156 1084.2,-156 1084.2,-156"/>
<polygon fill="black" stroke="black" points="1084.2,-159.5 1094.2,-156 1084.2,-152.5 1084.2,-159.5"/>
</g>
<!-- AppRoutingModule -->
<g id="node12" class="node">
<title>AppRoutingModule</title>
<polygon fill="#8dd3c7" stroke="black" points="824.27,-122 821.27,-126 800.27,-126 797.27,-122 695.73,-122 695.73,-86 824.27,-86 824.27,-122"/>
<text text-anchor="middle" x="760" y="-99.8" font-family="Times,serif" font-size="14.00">AppRoutingModule</text>
</g>
<!-- AppRoutingModule&#45;&gt;AppModule -->
<g id="edge11" class="edge">
<title>AppRoutingModule&#45;&gt;AppModule</title>
<path fill="none" stroke="black" d="M760,-122.03C760,-138.4 760,-160 760,-160 760,-160 1084.32,-160 1084.32,-160"/>
<polygon fill="black" stroke="black" points="1084.32,-163.5 1094.32,-160 1084.32,-156.5 1084.32,-163.5"/>
</g>
<!-- FormsModule -->
<g id="node13" class="node">
<title>FormsModule</title>
<polygon fill="#8dd3c7" stroke="black" points="677.83,-122 674.83,-126 653.83,-126 650.83,-122 582.17,-122 582.17,-86 677.83,-86 677.83,-122"/>
<text text-anchor="middle" x="630" y="-99.8" font-family="Times,serif" font-size="14.00">FormsModule</text>
</g>
<!-- FormsModule&#45;&gt;AppModule -->
<g id="edge12" class="edge">
<title>FormsModule&#45;&gt;AppModule</title>
<path fill="none" stroke="black" d="M630,-122.3C630,-140.27 630,-165 630,-165 630,-165 1084.16,-165 1084.16,-165"/>
<polygon fill="black" stroke="black" points="1084.16,-168.5 1094.16,-165 1084.16,-161.5 1084.16,-168.5"/>
</g>
<!-- ReactiveFormsModule -->
<g id="node14" class="node">
<title>ReactiveFormsModule</title>
<polygon fill="#8dd3c7" stroke="black" points="564.3,-122 561.3,-126 540.3,-126 537.3,-122 419.7,-122 419.7,-86 564.3,-86 564.3,-122"/>
<text text-anchor="middle" x="492" y="-99.8" font-family="Times,serif" font-size="14.00">ReactiveFormsModule</text>
</g>
<!-- ReactiveFormsModule&#45;&gt;AppModule -->
<g id="edge13" class="edge">
<title>ReactiveFormsModule&#45;&gt;AppModule</title>
<path fill="none" stroke="black" d="M492,-122.11C492,-141.34 492,-169 492,-169 492,-169 1084.24,-169 1084.24,-169"/>
<polygon fill="black" stroke="black" points="1084.24,-172.5 1094.24,-169 1084.24,-165.5 1084.24,-172.5"/>
</g>
<!-- HttpClientModule -->
<g id="node15" class="node">
<title>HttpClientModule</title>
<polygon fill="#8dd3c7" stroke="black" points="402.16,-122 399.16,-126 378.16,-126 375.16,-122 283.84,-122 283.84,-86 402.16,-86 402.16,-122"/>
<text text-anchor="middle" x="343" y="-99.8" font-family="Times,serif" font-size="14.00">HttpClientModule</text>
</g>
<!-- HttpClientModule&#45;&gt;AppModule -->
<g id="edge14" class="edge">
<title>HttpClientModule&#45;&gt;AppModule</title>
<path fill="none" stroke="black" d="M343,-122.03C343,-142.77 343,-174 343,-174 343,-174 1084.2,-174 1084.2,-174"/>
<polygon fill="black" stroke="black" points="1084.2,-177.5 1094.2,-174 1084.2,-170.5 1084.2,-177.5"/>
</g>
<!-- ApiService -->
<g id="node17" class="node">
<title>ApiService</title>
<ellipse fill="#fdb462" stroke="black" cx="206" cy="-104" rx="54.45" ry="18"/>
<text text-anchor="middle" x="206" y="-99.8" font-family="Times,serif" font-size="14.00">ApiService</text>
</g>
<!-- ApiService&#45;&gt;AppModule -->
<g id="edge16" class="edge">
<title>ApiService&#45;&gt;AppModule</title>
<path fill="none" stroke="black" d="M206,-122.29C206,-144.21 206,-178 206,-178 206,-178 1084.23,-178 1084.23,-178"/>
<polygon fill="black" stroke="black" points="1084.23,-181.5 1094.23,-178 1084.23,-174.5 1084.23,-181.5"/>
</g>
<!-- FileService -->
<g id="node18" class="node">
<title>FileService</title>
<ellipse fill="#fdb462" stroke="black" cx="79" cy="-104" rx="55.03" ry="18"/>
<text text-anchor="middle" x="79" y="-99.8" font-family="Times,serif" font-size="14.00">FileService</text>
</g>
<!-- FileService&#45;&gt;AppModule -->
<g id="edge17" class="edge">
<title>FileService&#45;&gt;AppModule</title>
<path fill="none" stroke="black" d="M79,-122.32C79,-145.66 79,-183 79,-183 79,-183 1084.24,-183 1084.24,-183"/>
<polygon fill="black" stroke="black" points="1084.24,-186.5 1094.24,-183 1084.24,-179.5 1084.24,-186.5"/>
</g>
</g>
</svg>
