<?xml version="1.0" encoding="UTF-8" standalone="no"?>
<!DOCTYPE svg PUBLIC "-//W3C//DTD SVG 1.1//EN"
 "http://www.w3.org/Graphics/SVG/1.1/DTD/svg11.dtd">
<!-- Generated by graphviz version 2.44.1 (20200629.0846)
 -->
<!-- Title: dependencies Pages: 1 -->
<svg width="2309pt" height="284pt"
 viewBox="0.00 0.00 2309.00 284.00" xmlns="http://www.w3.org/2000/svg" xmlns:xlink="http://www.w3.org/1999/xlink">
<g id="graph0" class="graph" transform="scale(1 1) rotate(0) translate(4 280)">
<title>dependencies</title>
<polygon fill="white" stroke="transparent" points="-4,4 -4,-280 2305,-280 2305,4 -4,4"/>
<text text-anchor="start" x="1129.51" y="-42.4" font-family="sans-serif" font-weight="bold" font-size="14.00">Legend</text>
<polygon fill="#ffffb3" stroke="transparent" points="916.5,-10 916.5,-30 936.5,-30 936.5,-10 916.5,-10"/>
<text text-anchor="start" x="940.13" y="-15.4" font-family="sans-serif" font-size="14.00"> &#160;Declarations</text>
<polygon fill="#8dd3c7" stroke="transparent" points="1029.5,-10 1029.5,-30 1049.5,-30 1049.5,-10 1029.5,-10"/>
<text text-anchor="start" x="1053.23" y="-15.4" font-family="sans-serif" font-size="14.00"> &#160;Module</text>
<polygon fill="#80b1d3" stroke="transparent" points="1115.5,-10 1115.5,-30 1135.5,-30 1135.5,-10 1115.5,-10"/>
<text text-anchor="start" x="1139.28" y="-15.4" font-family="sans-serif" font-size="14.00"> &#160;Bootstrap</text>
<polygon fill="#fdb462" stroke="transparent" points="1212.5,-10 1212.5,-30 1232.5,-30 1232.5,-10 1212.5,-10"/>
<text text-anchor="start" x="1236.17" y="-15.4" font-family="sans-serif" font-size="14.00"> &#160;Providers</text>
<polygon fill="#fb8072" stroke="transparent" points="1308.5,-10 1308.5,-30 1328.5,-30 1328.5,-10 1308.5,-10"/>
<text text-anchor="start" x="1332.23" y="-15.4" font-family="sans-serif" font-size="14.00"> &#160;Exports</text>
<g id="clust1" class="cluster">
<title>cluster_AppModule</title>
<polygon fill="none" stroke="black" stroke-dasharray="1,5" points="8,-70 8,-268 2293,-268 2293,-70 8,-70"/>
</g>
<g id="clust15" class="cluster">
<title>cluster_AppModule_providers</title>
<polygon fill="none" stroke="black" points="2033,-78 2033,-130 2285,-130 2285,-78 2033,-78"/>
</g>
<g id="clust14" class="cluster">
<title>cluster_AppModule_bootstrap</title>
<polygon fill="none" stroke="black" points="1125,-208 1125,-260 1249,-260 1249,-208 1125,-208"/>
</g>
<g id="clust2" class="cluster">
<title>cluster_AppModule_declarations</title>
<polygon fill="none" stroke="black" points="705,-78 705,-130 2025,-130 2025,-78 705,-78"/>
</g>
<g id="clust12" class="cluster">
<title>cluster_AppModule_imports</title>
<polygon fill="none" stroke="black" points="16,-78 16,-130 697,-130 697,-78 16,-78"/>
</g>
<!-- AppComponent -->
<g id="node1" class="node">
<title>AppComponent</title>
<polygon fill="#ffffb3" stroke="black" points="2016.94,-122 1911.06,-122 1911.06,-86 2016.94,-86 2016.94,-122"/>
<text text-anchor="middle" x="1964" y="-99.8" font-family="Times,serif" font-size="14.00">AppComponent</text>
</g>
<!-- AppModule -->
<g id="node10" class="node">
<title>AppModule</title>
<polygon fill="#8dd3c7" stroke="black" points="1228.66,-187 1225.66,-191 1204.66,-191 1201.66,-187 1145.34,-187 1145.34,-151 1228.66,-151 1228.66,-187"/>
<text text-anchor="middle" x="1187" y="-164.8" font-family="Times,serif" font-size="14.00">AppModule</text>
</g>
<!-- AppComponent&#45;&gt;AppModule -->
<g id="edge1" class="edge">
<title>AppComponent&#45;&gt;AppModule</title>
<path fill="none" stroke="black" d="M1964,-122.03C1964,-142.77 1964,-174 1964,-174 1964,-174 1238.77,-174 1238.77,-174"/>
<polygon fill="black" stroke="black" points="1238.77,-170.5 1228.77,-174 1238.77,-177.5 1238.77,-170.5"/>
</g>
<!-- HeaderComponent -->
<g id="node2" class="node">
<title>HeaderComponent</title>
<polygon fill="#ffffb3" stroke="black" points="1892.74,-122 1771.26,-122 1771.26,-86 1892.74,-86 1892.74,-122"/>
<text text-anchor="middle" x="1832" y="-99.8" font-family="Times,serif" font-size="14.00">HeaderComponent</text>
</g>
<!-- HeaderComponent&#45;&gt;AppModule -->
<g id="edge2" class="edge">
<title>HeaderComponent&#45;&gt;AppModule</title>
<path fill="none" stroke="black" d="M1832,-122.11C1832,-141.34 1832,-169 1832,-169 1832,-169 1238.82,-169 1238.82,-169"/>
<polygon fill="black" stroke="black" points="1238.82,-165.5 1228.82,-169 1238.82,-172.5 1238.82,-165.5"/>
</g>
<!-- routerComponents -->
<g id="node3" class="node">
<title>routerComponents</title>
<polygon fill="#ffffb3" stroke="black" points="1753.2,-122 1632.8,-122 1632.8,-86 1753.2,-86 1753.2,-122"/>
<text text-anchor="middle" x="1693" y="-99.8" font-family="Times,serif" font-size="14.00">routerComponents</text>
</g>
<!-- routerComponents&#45;&gt;AppModule -->
<g id="edge3" class="edge">
<title>routerComponents&#45;&gt;AppModule</title>
<path fill="none" stroke="black" d="M1693,-122.3C1693,-140.27 1693,-165 1693,-165 1693,-165 1238.84,-165 1238.84,-165"/>
<polygon fill="black" stroke="black" points="1238.84,-161.5 1228.84,-165 1238.84,-168.5 1238.84,-161.5"/>
</g>
<!-- IdeCompileComponent -->
<g id="node4" class="node">
<title>IdeCompileComponent</title>
<polygon fill="#ffffb3" stroke="black" points="1614.93,-122 1467.07,-122 1467.07,-86 1614.93,-86 1614.93,-122"/>
<text text-anchor="middle" x="1541" y="-99.8" font-family="Times,serif" font-size="14.00">IdeCompileComponent</text>
</g>
<!-- IdeCompileComponent&#45;&gt;AppModule -->
<g id="edge4" class="edge">
<title>IdeCompileComponent&#45;&gt;AppModule</title>
<path fill="none" stroke="black" d="M1541,-122.03C1541,-138.4 1541,-160 1541,-160 1541,-160 1239,-160 1239,-160"/>
<polygon fill="black" stroke="black" points="1239,-156.5 1229,-160 1239,-163.5 1239,-156.5"/>
</g>
<!-- InputComponent -->
<g id="node5" class="node">
<title>InputComponent</title>
<polygon fill="#ffffb3" stroke="black" points="1449.38,-122 1338.62,-122 1338.62,-86 1449.38,-86 1449.38,-122"/>
<text text-anchor="middle" x="1394" y="-99.8" font-family="Times,serif" font-size="14.00">InputComponent</text>
</g>
<!-- InputComponent&#45;&gt;AppModule -->
<g id="edge5" class="edge">
<title>InputComponent&#45;&gt;AppModule</title>
<path fill="none" stroke="black" d="M1394,-122.19C1394,-137.18 1394,-156 1394,-156 1394,-156 1238.89,-156 1238.89,-156"/>
<polygon fill="black" stroke="black" points="1238.89,-152.5 1228.89,-156 1238.89,-159.5 1238.89,-152.5"/>
</g>
<!-- SaveFileComponent -->
<g id="node6" class="node">
<title>SaveFileComponent</title>
<polygon fill="#ffffb3" stroke="black" points="1320.32,-122 1189.68,-122 1189.68,-86 1320.32,-86 1320.32,-122"/>
<text text-anchor="middle" x="1255" y="-99.8" font-family="Times,serif" font-size="14.00">SaveFileComponent</text>
</g>
<!-- SaveFileComponent&#45;&gt;AppModule -->
<g id="edge6" class="edge">
<title>SaveFileComponent&#45;&gt;AppModule</title>
<path fill="none" stroke="black" d="M1209.33,-122.11C1209.33,-122.11 1209.33,-140.99 1209.33,-140.99"/>
<polygon fill="black" stroke="black" points="1205.83,-140.99 1209.33,-150.99 1212.83,-140.99 1205.83,-140.99"/>
</g>
<!-- FileComponent -->
<g id="node7" class="node">
<title>FileComponent</title>
<polygon fill="#ffffb3" stroke="black" points="1171.61,-122 1068.39,-122 1068.39,-86 1171.61,-86 1171.61,-122"/>
<text text-anchor="middle" x="1120" y="-99.8" font-family="Times,serif" font-size="14.00">FileComponent</text>
</g>
<!-- FileComponent&#45;&gt;AppModule -->
<g id="edge7" class="edge">
<title>FileComponent&#45;&gt;AppModule</title>
<path fill="none" stroke="black" d="M1158.36,-122.11C1158.36,-122.11 1158.36,-140.99 1158.36,-140.99"/>
<polygon fill="black" stroke="black" points="1154.86,-140.99 1158.36,-150.99 1161.86,-140.99 1154.86,-140.99"/>
</g>
<!-- SubmitTryCodeComponent -->
<g id="node8" class="node">
<title>SubmitTryCodeComponent</title>
<polygon fill="#ffffb3" stroke="black" points="1050.55,-122 879.45,-122 879.45,-86 1050.55,-86 1050.55,-122"/>
<text text-anchor="middle" x="965" y="-99.8" font-family="Times,serif" font-size="14.00">SubmitTryCodeComponent</text>
</g>
<!-- SubmitTryCodeComponent&#45;&gt;AppModule -->
<g id="edge8" class="edge">
<title>SubmitTryCodeComponent&#45;&gt;AppModule</title>
<path fill="none" stroke="black" d="M965,-122.19C965,-137.18 965,-156 965,-156 965,-156 1135.24,-156 1135.24,-156"/>
<polygon fill="black" stroke="black" points="1135.24,-159.5 1145.24,-156 1135.24,-152.5 1135.24,-159.5"/>
</g>
<!-- FileDirCardComponent -->
<g id="node9" class="node">
<title>FileDirCardComponent</title>
<polygon fill="#ffffb3" stroke="black" points="861.48,-122 712.52,-122 712.52,-86 861.48,-86 861.48,-122"/>
<text text-anchor="middle" x="787" y="-99.8" font-family="Times,serif" font-size="14.00">FileDirCardComponent</text>
</g>
<!-- FileDirCardComponent&#45;&gt;AppModule -->
<g id="edge9" class="edge">
<title>FileDirCardComponent&#45;&gt;AppModule</title>
<path fill="none" stroke="black" d="M787,-122.03C787,-138.4 787,-160 787,-160 787,-160 1135.32,-160 1135.32,-160"/>
<polygon fill="black" stroke="black" points="1135.33,-163.5 1145.32,-160 1135.32,-156.5 1135.33,-163.5"/>
</g>
<!-- AppComponent  -->
<g id="node16" class="node">
<title>AppComponent </title>
<polygon fill="#80b1d3" stroke="black" points="1241.44,-252 1132.56,-252 1132.56,-216 1241.44,-216 1241.44,-252"/>
<text text-anchor="middle" x="1187" y="-229.8" font-family="Times,serif" font-size="14.00">AppComponent </text>
</g>
<!-- AppModule&#45;&gt;AppComponent  -->
<g id="edge15" class="edge">
<title>AppModule&#45;&gt;AppComponent </title>
<path fill="none" stroke="black" stroke-dasharray="1,5" d="M1187,-187.11C1187,-187.11 1187,-205.99 1187,-205.99"/>
<polygon fill="black" stroke="black" points="1183.5,-205.99 1187,-215.99 1190.5,-205.99 1183.5,-205.99"/>
</g>
<!-- BrowserModule -->
<g id="node11" class="node">
<title>BrowserModule</title>
<polygon fill="#8dd3c7" stroke="black" points="689.47,-122 686.47,-126 665.47,-126 662.47,-122 582.53,-122 582.53,-86 689.47,-86 689.47,-122"/>
<text text-anchor="middle" x="636" y="-99.8" font-family="Times,serif" font-size="14.00">BrowserModule</text>
</g>
<!-- BrowserModule&#45;&gt;AppModule -->
<g id="edge10" class="edge">
<title>BrowserModule&#45;&gt;AppModule</title>
<path fill="none" stroke="black" d="M636,-122.3C636,-140.27 636,-165 636,-165 636,-165 1135.13,-165 1135.13,-165"/>
<polygon fill="black" stroke="black" points="1135.13,-168.5 1145.13,-165 1135.13,-161.5 1135.13,-168.5"/>
</g>
<!-- AppRoutingModule -->
<g id="node12" class="node">
<title>AppRoutingModule</title>
<polygon fill="#8dd3c7" stroke="black" points="564.27,-122 561.27,-126 540.27,-126 537.27,-122 435.73,-122 435.73,-86 564.27,-86 564.27,-122"/>
<text text-anchor="middle" x="500" y="-99.8" font-family="Times,serif" font-size="14.00">AppRoutingModule</text>
</g>
<!-- AppRoutingModule&#45;&gt;AppModule -->
<g id="edge11" class="edge">
<title>AppRoutingModule&#45;&gt;AppModule</title>
<path fill="none" stroke="black" d="M500,-122.11C500,-141.34 500,-169 500,-169 500,-169 1135.32,-169 1135.32,-169"/>
<polygon fill="black" stroke="black" points="1135.32,-172.5 1145.32,-169 1135.32,-165.5 1135.32,-172.5"/>
</g>
<!-- FormsModule -->
<g id="node13" class="node">
<title>FormsModule</title>
<polygon fill="#8dd3c7" stroke="black" points="417.83,-122 414.83,-126 393.83,-126 390.83,-122 322.17,-122 322.17,-86 417.83,-86 417.83,-122"/>
<text text-anchor="middle" x="370" y="-99.8" font-family="Times,serif" font-size="14.00">FormsModule</text>
</g>
<!-- FormsModule&#45;&gt;AppModule -->
<g id="edge12" class="edge">
<title>FormsModule&#45;&gt;AppModule</title>
<path fill="none" stroke="black" d="M370,-122.03C370,-142.77 370,-174 370,-174 370,-174 1135.08,-174 1135.08,-174"/>
<polygon fill="black" stroke="black" points="1135.08,-177.5 1145.08,-174 1135.08,-170.5 1135.08,-177.5"/>
</g>
<!-- ReactiveFormsModule -->
<g id="node14" class="node">
<title>ReactiveFormsModule</title>
<polygon fill="#8dd3c7" stroke="black" points="304.3,-122 301.3,-126 280.3,-126 277.3,-122 159.7,-122 159.7,-86 304.3,-86 304.3,-122"/>
<text text-anchor="middle" x="232" y="-99.8" font-family="Times,serif" font-size="14.00">ReactiveFormsModule</text>
</g>
<!-- ReactiveFormsModule&#45;&gt;AppModule -->
<g id="edge13" class="edge">
<title>ReactiveFormsModule&#45;&gt;AppModule</title>
<path fill="none" stroke="black" d="M232,-122.29C232,-144.21 232,-178 232,-178 232,-178 1135.04,-178 1135.04,-178"/>
<polygon fill="black" stroke="black" points="1135.04,-181.5 1145.04,-178 1135.04,-174.5 1135.04,-181.5"/>
</g>
<!-- HttpClientModule -->
<g id="node15" class="node">
<title>HttpClientModule</title>
<polygon fill="#8dd3c7" stroke="black" points="142.16,-122 139.16,-126 118.16,-126 115.16,-122 23.84,-122 23.84,-86 142.16,-86 142.16,-122"/>
<text text-anchor="middle" x="83" y="-99.8" font-family="Times,serif" font-size="14.00">HttpClientModule</text>
</g>
<!-- HttpClientModule&#45;&gt;AppModule -->
<g id="edge14" class="edge">
<title>HttpClientModule&#45;&gt;AppModule</title>
<path fill="none" stroke="black" d="M83,-122.32C83,-145.66 83,-183 83,-183 83,-183 1135.07,-183 1135.07,-183"/>
<polygon fill="black" stroke="black" points="1135.07,-186.5 1145.07,-183 1135.07,-179.5 1135.07,-186.5"/>
</g>
<!-- ApiService -->
<g id="node17" class="node">
<title>ApiService</title>
<ellipse fill="#fdb462" stroke="black" cx="2223" cy="-104" rx="54.45" ry="18"/>
<text text-anchor="middle" x="2223" y="-99.8" font-family="Times,serif" font-size="14.00">ApiService</text>
</g>
<!-- ApiService&#45;&gt;AppModule -->
<g id="edge16" class="edge">
<title>ApiService&#45;&gt;AppModule</title>
<path fill="none" stroke="black" d="M2223,-122.32C2223,-145.66 2223,-183 2223,-183 2223,-183 1238.9,-183 1238.9,-183"/>
<polygon fill="black" stroke="black" points="1238.9,-179.5 1228.9,-183 1238.9,-186.5 1238.9,-179.5"/>
</g>
<!-- FileService -->
<g id="node18" class="node">
<title>FileService</title>
<ellipse fill="#fdb462" stroke="black" cx="2096" cy="-104" rx="55.03" ry="18"/>
<text text-anchor="middle" x="2096" y="-99.8" font-family="Times,serif" font-size="14.00">FileService</text>
</g>
<!-- FileService&#45;&gt;AppModule -->
<g id="edge17" class="edge">
<title>FileService&#45;&gt;AppModule</title>
<path fill="none" stroke="black" d="M2096,-122.29C2096,-144.21 2096,-178 2096,-178 2096,-178 1238.72,-178 1238.72,-178"/>
<polygon fill="black" stroke="black" points="1238.72,-174.5 1228.72,-178 1238.72,-181.5 1238.72,-174.5"/>
</g>
</g>
</svg>
